<mxfile host="app.diagrams.net" agent="Mozilla/5.0 (Windows NT 10.0; Win64; x64) AppleWebKit/537.36 (KHTML, like Gecko) Chrome/137.0.0.0 Safari/537.36" version="26.0.16">
  <diagram id="6a731a19-8d31-9384-78a2-239565b7b9f0" name="Page-1">
    <mxGraphModel dx="2314" dy="1106" grid="1" gridSize="10" guides="1" tooltips="1" connect="1" arrows="1" fold="1" page="1" pageScale="1" pageWidth="1169" pageHeight="827" background="none" math="0" shadow="0">
      <root>
        <mxCell id="0" />
        <mxCell id="1" parent="0" />
        <mxCell id="2" value="start" style="shape=mxgraph.flowchart.terminator;strokeWidth=2;gradientColor=none;gradientDirection=north;fontStyle=0;html=1;fillColor=light-dark(#00CC00,var(--ge-dark-color, #121212));" parent="1" vertex="1">
          <mxGeometry x="20" y="315" width="120" height="30" as="geometry" />
        </mxCell>
        <mxCell id="3" value="Unstructured&lt;div&gt;Clinical Text&lt;/div&gt;" style="shape=mxgraph.flowchart.data;strokeWidth=2;gradientColor=none;gradientDirection=north;fontStyle=0;html=1;fillColor=light-dark(#D9E3F0,var(--ge-dark-color, #121212));" parent="1" vertex="1">
          <mxGeometry x="146" y="400" width="159" height="80" as="geometry" />
        </mxCell>
        <mxCell id="40" value="end" style="shape=mxgraph.flowchart.terminator;strokeWidth=2;gradientColor=none;gradientDirection=north;fontStyle=0;html=1;fillColor=light-dark(#FF6666,var(--ge-dark-color, #121212));" parent="1" vertex="1">
          <mxGeometry x="1150" y="335" width="120" height="30" as="geometry" />
        </mxCell>
        <mxCell id="qayOgLfZ6thikW48huFc-57" value="Construct Prompt&lt;div&gt;Template&lt;/div&gt;" style="rounded=1;whiteSpace=wrap;html=1;fillColor=light-dark(#00CCCC,var(--ge-dark-color, #121212));" vertex="1" parent="1">
          <mxGeometry x="160" y="180" width="155" height="80" as="geometry" />
        </mxCell>
        <mxCell id="qayOgLfZ6thikW48huFc-59" value="Prompt text" style="shape=mxgraph.flowchart.data;strokeWidth=2;gradientColor=none;gradientDirection=north;fontStyle=0;html=1;fillColor=light-dark(#D9E3F0,var(--ge-dark-color, #121212));" vertex="1" parent="1">
          <mxGeometry x="360" y="180" width="159" height="80" as="geometry" />
        </mxCell>
        <mxCell id="qayOgLfZ6thikW48huFc-60" value="Run Mistral LLM&amp;nbsp;&lt;div&gt;Inference&lt;/div&gt;" style="shape=hexagon;perimeter=hexagonPerimeter2;whiteSpace=wrap;html=1;fixedSize=1;fillColor=light-dark(#F9E79F,var(--ge-dark-color, #121212));" vertex="1" parent="1">
          <mxGeometry x="372" y="310" width="120" height="80" as="geometry" />
        </mxCell>
        <mxCell id="qayOgLfZ6thikW48huFc-61" value="Unstructured&amp;nbsp;&lt;div&gt;LLM Response&lt;/div&gt;" style="shape=mxgraph.flowchart.data;strokeWidth=2;gradientColor=none;gradientDirection=north;fontStyle=0;html=1;fillColor=light-dark(#D9E3F0,var(--ge-dark-color, #121212));" vertex="1" parent="1">
          <mxGeometry x="540" y="310" width="159" height="80" as="geometry" />
        </mxCell>
        <mxCell id="qayOgLfZ6thikW48huFc-63" value="Parse &amp;amp; Extract Predicted Label" style="rounded=1;whiteSpace=wrap;html=1;fillColor=light-dark(#00CCCC,var(--ge-dark-color, #121212));" vertex="1" parent="1">
          <mxGeometry x="750" y="310" width="155" height="80" as="geometry" />
        </mxCell>
        <mxCell id="qayOgLfZ6thikW48huFc-65" value="Final Diagnosis&amp;nbsp;&lt;div&gt;Risk Category&lt;/div&gt;" style="shape=mxgraph.flowchart.data;strokeWidth=2;gradientColor=none;gradientDirection=north;fontStyle=0;html=1;fillColor=light-dark(#D9E3F0,var(--ge-dark-color, #121212));" vertex="1" parent="1">
          <mxGeometry x="950" y="310" width="159" height="80" as="geometry" />
        </mxCell>
        <mxCell id="qayOgLfZ6thikW48huFc-66" value="" style="strokeWidth=2;html=1;shape=mxgraph.flowchart.annotation_2;align=left;labelPosition=right;pointerEvents=1;" vertex="1" parent="1">
          <mxGeometry x="140" y="220" width="20" height="220" as="geometry" />
        </mxCell>
        <mxCell id="qayOgLfZ6thikW48huFc-67" value="" style="endArrow=classic;html=1;rounded=0;exitX=1;exitY=0.5;exitDx=0;exitDy=0;entryX=0.095;entryY=0.5;entryDx=0;entryDy=0;entryPerimeter=0;" edge="1" parent="1" source="qayOgLfZ6thikW48huFc-57" target="qayOgLfZ6thikW48huFc-59">
          <mxGeometry width="50" height="50" relative="1" as="geometry">
            <mxPoint x="560" y="650" as="sourcePoint" />
            <mxPoint x="610" y="600" as="targetPoint" />
          </mxGeometry>
        </mxCell>
        <mxCell id="qayOgLfZ6thikW48huFc-68" value="" style="endArrow=classic;html=1;rounded=0;exitX=0.459;exitY=1.013;exitDx=0;exitDy=0;exitPerimeter=0;" edge="1" parent="1" source="qayOgLfZ6thikW48huFc-59" target="qayOgLfZ6thikW48huFc-60">
          <mxGeometry width="50" height="50" relative="1" as="geometry">
            <mxPoint x="560" y="650" as="sourcePoint" />
            <mxPoint x="610" y="600" as="targetPoint" />
          </mxGeometry>
        </mxCell>
        <mxCell id="qayOgLfZ6thikW48huFc-69" value="" style="endArrow=classic;html=1;rounded=0;entryX=0.5;entryY=1;entryDx=0;entryDy=0;exitX=0.905;exitY=0.5;exitDx=0;exitDy=0;exitPerimeter=0;" edge="1" parent="1" source="3" target="qayOgLfZ6thikW48huFc-60">
          <mxGeometry width="50" height="50" relative="1" as="geometry">
            <mxPoint x="560" y="650" as="sourcePoint" />
            <mxPoint x="610" y="600" as="targetPoint" />
            <Array as="points">
              <mxPoint x="432" y="440" />
            </Array>
          </mxGeometry>
        </mxCell>
        <mxCell id="qayOgLfZ6thikW48huFc-70" value="" style="endArrow=classic;html=1;rounded=0;exitX=1;exitY=0.5;exitDx=0;exitDy=0;entryX=0.095;entryY=0.5;entryDx=0;entryDy=0;entryPerimeter=0;" edge="1" parent="1" source="qayOgLfZ6thikW48huFc-60" target="qayOgLfZ6thikW48huFc-61">
          <mxGeometry width="50" height="50" relative="1" as="geometry">
            <mxPoint x="560" y="650" as="sourcePoint" />
            <mxPoint x="610" y="600" as="targetPoint" />
          </mxGeometry>
        </mxCell>
        <mxCell id="qayOgLfZ6thikW48huFc-71" value="" style="endArrow=classic;html=1;rounded=0;exitX=0.905;exitY=0.5;exitDx=0;exitDy=0;entryX=0;entryY=0.5;entryDx=0;entryDy=0;entryPerimeter=0;exitPerimeter=0;" edge="1" parent="1" source="qayOgLfZ6thikW48huFc-65" target="40">
          <mxGeometry width="50" height="50" relative="1" as="geometry">
            <mxPoint x="502" y="360" as="sourcePoint" />
            <mxPoint x="565" y="360" as="targetPoint" />
          </mxGeometry>
        </mxCell>
        <mxCell id="qayOgLfZ6thikW48huFc-72" value="" style="endArrow=classic;html=1;rounded=0;exitX=1;exitY=0.5;exitDx=0;exitDy=0;entryX=0.095;entryY=0.5;entryDx=0;entryDy=0;entryPerimeter=0;" edge="1" parent="1" source="qayOgLfZ6thikW48huFc-63" target="qayOgLfZ6thikW48huFc-65">
          <mxGeometry width="50" height="50" relative="1" as="geometry">
            <mxPoint x="910" y="430" as="sourcePoint" />
            <mxPoint x="973" y="430" as="targetPoint" />
          </mxGeometry>
        </mxCell>
        <mxCell id="qayOgLfZ6thikW48huFc-73" value="" style="endArrow=classic;html=1;rounded=0;exitX=0.905;exitY=0.5;exitDx=0;exitDy=0;entryX=0;entryY=0.5;entryDx=0;entryDy=0;exitPerimeter=0;" edge="1" parent="1" source="qayOgLfZ6thikW48huFc-61" target="qayOgLfZ6thikW48huFc-63">
          <mxGeometry width="50" height="50" relative="1" as="geometry">
            <mxPoint x="680" y="360" as="sourcePoint" />
            <mxPoint x="743" y="360" as="targetPoint" />
          </mxGeometry>
        </mxCell>
      </root>
    </mxGraphModel>
  </diagram>
</mxfile>
